<svg id="Capa_1" enable-background="new 0 0 512 512" height="512" viewBox="0 0 512 512" width="512"
    xmlns="http://www.w3.org/2000/svg">
    <g>
        <path fill="#dc3545"
            d="m415.157 86.566-93.9 26.865c-.104.034-.208.068-.312.104-10.041 3.493-16.788 12.982-16.788 23.614v27.223h-92.79l106.051-106.05c5.858-5.858 5.858-15.355 0-21.213l-26.872-26.873c-13.647-13.648-35.853-13.648-49.5 0l-27.631 27.631-14.144-14.144c-15.596-15.597-40.974-15.597-56.572 0l-55.159 55.159c-15.596 15.597-15.596 40.975 0 56.572l14.144 14.144-27.631 27.631c-13.647 13.647-13.647 35.853 0 49.5l26.872 26.872c5.857 5.858 15.356 5.859 21.214 0l38.022-38.022v231.417c0 35.843 29.161 65.004 65.004 65.004h158.012c35.843 0 65.004-29.161 65.004-65.004 0-10.566 0-331.798 0-336.751.001-17.08-16.816-29.171-33.024-23.679zm-306.403 13.529 55.158-55.158c3.899-3.899 10.244-3.9 14.145 0l14.143 14.144-69.302 69.302-14.144-14.143c-3.899-3.9-3.899-10.245 0-14.145zm2.779 121.685-16.266-16.265c-1.95-1.95-1.95-5.123 0-7.073 10.495-10.495 161.616-161.615 166.993-166.992 1.951-1.95 5.122-1.95 7.073 0l16.265 16.266zm306.648 225.216c0 19.301-15.703 35.003-35.003 35.003h-158.012c-19.301 0-35.003-15.703-35.003-35.003v-252.622h228.018zm0-281.816-84.022-.807v-23.583l84.022-23.67z" />
        <path fill="#dc3540"
            d="m237.431 442.995c8.284 0 15-6.716 15-15v-179.617c0-8.284-6.716-15-15-15s-15 6.716-15 15v179.616c-.001 8.285 6.715 15.001 15 15.001z" />
        <path fill="#dc3540"
            d="m304.172 442.995c8.284 0 15-6.716 15-15v-179.617c0-8.284-6.716-15-15-15s-15 6.716-15 15v179.616c-.001 8.285 6.715 15.001 15 15.001z" />
        <path fill="#dc3540"
            d="m370.912 442.995c8.284 0 15-6.716 15-15v-179.617c0-8.284-6.716-15-15-15s-15 6.716-15 15v179.616c0 8.285 6.716 15.001 15 15.001z" />
    </g>
</svg>