<svg id="svg" version="1.1" xmlns="http://www.w3.org/2000/svg" xmlns:xlink="http://www.w3.org/1999/xlink" width="400" height="400" viewBox="0, 0, 400,400"><g id="svgg"><path id="path0" d="M269.200 32.392 L 257.800 32.619 267.300 32.709 C 273.306 32.767,276.800 32.947,276.800 33.200 C 276.800 33.420,277.385 33.621,278.100 33.646 L 279.400 33.692 278.000 34.021 C 274.374 34.873,273.715 35.115,274.900 35.159 L 276.000 35.200 276.000 58.537 L 276.000 81.874 267.119 82.149 C 260.609 82.350,258.072 82.566,257.619 82.958 C 257.278 83.252,255.844 83.608,254.430 83.748 C 253.017 83.888,251.577 84.257,251.230 84.567 C 250.884 84.878,249.916 85.259,249.080 85.414 C 248.245 85.569,247.297 85.960,246.975 86.282 C 246.653 86.604,245.762 87.041,244.995 87.252 C 244.228 87.464,243.600 87.809,243.600 88.019 C 243.600 88.228,243.285 88.400,242.900 88.400 C 242.515 88.401,241.677 88.851,241.038 89.400 C 240.399 89.950,239.628 90.400,239.325 90.400 C 239.023 90.400,238.671 90.670,238.545 91.000 C 238.418 91.330,238.137 91.600,237.920 91.600 C 235.802 91.600,222.800 105.999,222.800 108.345 C 222.800 108.595,222.627 108.800,222.416 108.800 C 222.205 108.800,221.816 109.522,221.551 110.405 C 221.287 111.287,220.830 112.209,220.535 112.454 C 220.241 112.698,219.999 113.281,219.997 113.749 C 219.996 114.217,219.637 115.140,219.200 115.800 C 218.763 116.460,218.403 117.540,218.400 118.200 C 218.397 118.860,218.102 119.940,217.744 120.600 C 215.899 124.000,215.835 141.796,217.653 145.878 C 218.064 146.801,218.401 148.061,218.403 148.678 C 218.404 149.295,218.763 150.340,219.200 151.000 C 219.637 151.660,219.996 152.583,219.997 153.051 C 219.999 153.519,220.241 154.102,220.535 154.346 C 220.830 154.591,221.287 155.513,221.551 156.395 C 221.816 157.278,222.193 158.000,222.389 158.000 C 222.585 158.000,222.862 158.365,223.003 158.810 C 223.363 159.942,225.273 162.800,225.671 162.800 C 225.852 162.800,226.000 162.990,226.000 163.221 C 226.000 164.413,234.525 173.422,236.148 173.946 C 236.396 174.026,236.780 174.296,237.000 174.546 C 237.527 175.144,240.565 177.200,240.922 177.200 C 241.075 177.200,241.560 177.560,242.000 178.000 C 242.440 178.440,243.160 178.800,243.600 178.800 C 244.040 178.800,244.760 179.160,245.200 179.600 C 245.640 180.040,246.391 180.400,246.869 180.400 C 247.346 180.400,248.052 180.685,248.437 181.034 C 248.823 181.383,249.917 181.770,250.869 181.894 C 251.821 182.018,252.709 182.286,252.841 182.489 C 253.190 183.022,255.886 183.579,258.169 183.590 C 259.312 183.596,260.405 183.842,260.776 184.178 C 262.208 185.474,274.400 185.472,274.400 184.175 C 274.400 183.859,274.760 183.600,275.200 183.600 C 275.991 183.600,276.000 183.867,276.000 207.800 L 276.000 232.000 270.500 232.063 C 261.909 232.161,258.288 231.964,257.411 231.351 C 256.977 231.048,255.700 230.800,254.572 230.800 C 253.097 230.800,252.264 230.576,251.600 230.000 C 251.022 229.498,250.103 229.200,249.139 229.200 C 248.133 229.200,247.323 228.923,246.800 228.400 C 246.360 227.960,245.640 227.600,245.200 227.600 C 244.760 227.600,244.040 227.240,243.600 226.800 C 243.160 226.360,242.530 226.000,242.200 226.000 C 241.870 226.000,241.240 225.640,240.800 225.200 C 240.360 224.760,239.683 224.400,239.296 224.400 C 238.909 224.400,238.368 224.040,238.093 223.600 C 237.818 223.160,237.325 222.800,236.997 222.800 C 236.668 222.800,236.400 222.530,236.400 222.200 C 236.400 221.870,236.175 221.594,235.900 221.587 C 235.447 221.576,233.200 219.836,233.200 219.496 C 233.200 219.418,231.878 217.994,230.263 216.331 C 228.648 214.668,227.214 213.013,227.076 212.653 C 226.938 212.294,226.549 212.000,226.213 212.000 C 225.876 212.000,225.600 211.739,225.600 211.420 C 225.600 211.101,225.359 210.696,225.065 210.520 C 224.770 210.344,224.365 209.908,224.165 209.551 C 223.792 208.887,220.660 205.246,217.800 202.152 C 215.969 200.171,215.725 199.890,212.989 196.610 C 210.203 193.272,208.874 191.768,206.900 189.718 C 205.965 188.747,205.200 187.799,205.200 187.610 C 205.200 187.421,205.041 187.207,204.847 187.133 C 204.653 187.060,203.523 185.830,202.337 184.400 C 199.303 180.743,197.773 179.030,194.853 176.023 C 193.453 174.580,192.013 173.040,191.653 172.600 C 191.294 172.160,190.010 170.991,188.800 170.002 C 187.590 169.012,186.420 168.011,186.200 167.776 C 185.849 167.400,181.638 164.635,179.400 163.310 C 177.625 162.259,173.708 160.400,173.268 160.400 C 173.011 160.400,172.800 160.227,172.800 160.015 C 172.800 159.804,172.035 159.433,171.100 159.192 C 170.165 158.951,168.833 158.494,168.140 158.177 C 167.446 157.859,166.450 157.600,165.926 157.600 C 165.401 157.600,163.899 157.210,162.586 156.734 C 159.826 155.731,143.167 155.424,139.600 156.310 C 135.349 157.365,134.079 157.727,132.000 158.473 C 130.790 158.907,129.060 159.608,128.156 160.031 C 127.252 160.454,126.228 160.800,125.880 160.800 C 125.532 160.800,125.147 160.963,125.024 161.161 C 124.901 161.360,123.497 162.185,121.904 162.994 C 120.310 163.804,118.915 164.593,118.803 164.748 C 118.691 164.903,117.700 165.617,116.600 166.334 C 111.776 169.482,105.556 175.720,97.791 185.200 C 96.259 187.070,94.806 188.780,94.561 189.000 C 94.316 189.220,92.226 191.650,89.917 194.400 C 87.608 197.150,85.107 200.106,84.360 200.968 C 80.210 205.756,79.275 206.850,78.000 208.411 C 77.230 209.353,76.411 210.321,76.181 210.562 C 75.543 211.228,70.853 216.703,68.607 219.404 C 67.511 220.722,65.823 222.648,64.856 223.684 C 63.889 224.720,62.819 225.980,62.479 226.484 C 62.139 226.988,61.217 228.130,60.430 229.022 C 59.644 229.913,58.544 231.173,57.987 231.822 C 57.431 232.470,55.809 234.350,54.385 236.000 C 52.960 237.650,50.986 239.990,49.999 241.200 C 49.011 242.410,48.010 243.580,47.774 243.800 C 47.537 244.020,45.916 245.895,44.172 247.967 C 42.427 250.039,40.190 252.663,39.200 253.798 C 38.210 254.933,36.590 256.791,35.600 257.927 C 34.437 259.261,33.482 259.993,32.900 259.996 L 32.000 260.000 32.000 293.338 C 32.000 326.168,32.012 326.687,32.800 327.400 C 33.442 327.981,33.600 328.632,33.600 330.699 C 33.600 332.938,33.704 333.302,34.400 333.484 C 35.065 333.658,35.200 334.030,35.200 335.684 C 35.200 337.338,35.335 337.710,36.000 337.884 C 36.523 338.021,36.800 338.430,36.800 339.063 C 36.800 339.597,37.160 340.420,37.600 340.892 C 38.040 341.364,38.400 342.088,38.400 342.499 C 38.400 342.968,38.574 343.139,38.868 342.958 C 39.188 342.760,39.250 342.892,39.066 343.371 C 38.877 343.864,39.023 344.133,39.552 344.272 C 40.064 344.405,40.243 344.716,40.107 345.235 C 39.959 345.799,40.116 346.000,40.703 346.000 C 41.269 346.000,41.570 346.349,41.740 347.200 C 41.881 347.904,42.232 348.400,42.590 348.400 C 42.926 348.400,43.181 348.535,43.157 348.700 C 43.033 349.560,43.734 350.723,44.256 350.523 C 44.573 350.401,44.804 350.459,44.769 350.651 C 44.628 351.423,44.818 352.397,45.100 352.353 C 45.982 352.213,46.461 352.464,46.269 352.963 C 46.132 353.321,46.399 353.613,47.000 353.764 C 47.521 353.895,48.061 354.361,48.200 354.801 C 48.340 355.240,48.700 355.600,49.000 355.600 C 49.300 355.600,49.660 355.960,49.800 356.400 C 49.940 356.840,50.389 357.200,50.798 357.200 C 51.208 357.200,51.813 357.470,52.143 357.800 C 52.473 358.130,53.026 358.400,53.371 358.400 C 53.733 358.400,54.000 358.739,54.000 359.200 C 54.000 359.926,54.835 360.257,56.119 360.041 C 56.294 360.012,56.384 360.305,56.319 360.694 C 56.229 361.225,56.512 361.430,57.458 361.522 C 58.150 361.589,59.033 361.994,59.420 362.422 C 59.807 362.850,60.506 363.200,60.973 363.200 C 61.440 363.200,62.130 363.560,62.507 364.000 C 63.004 364.580,63.687 364.800,64.996 364.800 C 66.323 364.800,66.800 364.957,66.800 365.392 C 66.800 366.123,68.173 366.497,70.238 366.328 C 73.145 366.090,72.403 364.629,69.300 364.481 C 67.415 364.391,66.800 364.216,66.800 363.771 C 66.800 363.014,65.256 362.424,63.936 362.676 C 63.143 362.828,62.863 362.683,62.693 362.036 C 62.525 361.390,62.158 361.200,61.084 361.200 C 60.030 361.200,59.643 361.006,59.484 360.400 C 59.343 359.859,58.938 359.600,58.237 359.600 C 57.588 359.600,57.200 359.379,57.200 359.008 C 57.200 358.682,56.745 358.301,56.189 358.162 C 55.634 358.022,54.997 357.569,54.775 357.154 C 54.553 356.739,54.115 356.400,53.800 356.400 C 53.485 356.400,53.035 356.040,52.800 355.600 C 52.565 355.160,52.127 354.800,51.828 354.800 C 51.004 354.800,46.756 350.473,45.034 347.878 C 44.195 346.613,43.169 345.397,42.754 345.175 C 42.339 344.953,42.000 344.427,42.000 344.006 C 42.000 343.584,41.750 343.096,41.445 342.920 C 41.139 342.744,40.823 342.240,40.742 341.800 C 40.661 341.360,40.187 340.820,39.688 340.601 C 38.961 340.281,38.827 339.986,39.017 339.121 C 39.198 338.301,39.056 337.917,38.427 337.524 C 37.804 337.135,37.600 336.593,37.600 335.326 C 37.600 334.045,37.390 333.498,36.715 333.025 C 36.013 332.534,35.853 332.080,35.943 330.830 C 36.052 329.320,35.375 327.292,34.915 327.752 C 34.575 328.091,33.199 327.233,33.206 326.686 C 33.210 326.340,33.310 326.354,33.550 326.732 C 34.292 327.904,34.400 323.597,34.400 292.775 L 34.400 260.849 35.638 259.525 C 36.319 258.796,37.333 257.525,37.891 256.700 C 38.450 255.875,39.062 255.200,39.253 255.200 C 39.444 255.200,39.600 255.035,39.600 254.833 C 39.600 254.631,40.275 253.737,41.100 252.847 C 43.222 250.558,45.403 248.036,46.694 246.381 C 48.177 244.480,48.746 243.823,50.423 242.080 C 51.206 241.266,51.965 240.285,52.111 239.900 C 52.256 239.515,52.518 239.200,52.693 239.200 C 52.867 239.200,54.068 237.850,55.360 236.200 C 56.653 234.550,57.865 233.200,58.055 233.200 C 58.245 233.200,58.400 233.035,58.400 232.833 C 58.400 232.631,59.075 231.736,59.900 230.845 C 61.799 228.794,62.136 228.404,64.747 225.219 C 65.928 223.778,67.053 222.540,67.247 222.467 C 67.441 222.393,67.602 222.123,67.604 221.867 C 67.606 221.610,68.324 220.770,69.200 220.000 C 70.076 219.230,70.794 218.384,70.796 218.120 C 70.798 217.856,71.035 217.496,71.322 217.320 C 71.609 217.144,72.766 215.882,73.893 214.515 C 76.716 211.089,76.808 210.982,78.500 209.155 C 79.325 208.264,80.000 207.378,80.000 207.187 C 80.000 206.996,80.251 206.696,80.557 206.520 C 80.864 206.344,82.341 204.678,83.840 202.817 C 85.339 200.957,86.843 199.144,87.183 198.789 C 88.489 197.422,90.676 194.909,92.567 192.603 C 93.651 191.281,94.822 189.903,95.169 189.540 C 95.516 189.178,96.430 188.108,97.200 187.163 C 97.970 186.218,98.885 185.150,99.233 184.789 C 99.582 184.429,101.091 182.654,102.587 180.845 C 105.483 177.345,111.804 170.805,112.302 170.793 C 112.466 170.789,113.048 170.315,113.595 169.738 C 114.142 169.162,115.295 168.220,116.158 167.645 C 117.022 167.070,118.194 166.290,118.764 165.912 C 119.334 165.534,120.340 164.924,121.000 164.556 C 121.660 164.189,122.290 163.778,122.400 163.644 C 122.774 163.188,127.077 161.200,127.691 161.200 C 128.027 161.200,128.522 160.935,128.791 160.611 C 129.060 160.286,129.937 159.906,130.740 159.766 C 131.543 159.625,132.564 159.283,133.010 159.005 C 133.455 158.727,134.801 158.365,136.002 158.200 C 137.202 158.035,138.907 157.632,139.792 157.304 C 141.833 156.549,154.893 156.127,157.800 156.723 C 164.773 158.151,166.332 158.524,167.460 159.032 C 168.154 159.344,169.018 159.600,169.381 159.600 C 169.744 159.600,170.707 159.942,171.521 160.361 C 172.334 160.779,174.604 161.904,176.565 162.861 C 178.526 163.817,180.326 164.780,180.565 165.000 C 180.804 165.220,181.810 165.936,182.800 166.592 C 187.921 169.983,192.965 174.789,198.995 182.025 C 200.565 183.908,202.198 185.812,202.625 186.256 C 204.301 188.001,208.631 192.965,209.170 193.760 C 209.655 194.476,211.948 197.109,216.866 202.600 C 217.457 203.260,218.719 204.728,219.671 205.863 C 228.824 216.781,237.046 225.200,238.553 225.200 C 238.667 225.200,239.534 225.718,240.480 226.350 C 242.990 228.028,249.522 230.851,252.200 231.415 C 252.860 231.554,254.047 231.910,254.838 232.206 C 261.224 234.595,278.892 233.525,284.753 230.395 C 285.109 230.205,286.480 229.582,287.800 229.010 C 289.120 228.438,290.470 227.810,290.800 227.615 C 291.130 227.421,295.540 225.167,300.600 222.607 C 305.660 220.047,310.070 217.800,310.400 217.615 C 310.730 217.429,312.170 216.714,313.600 216.025 C 315.030 215.336,316.470 214.618,316.800 214.429 C 317.130 214.240,317.850 213.888,318.400 213.646 C 318.950 213.404,319.670 213.049,320.000 212.857 C 320.884 212.342,325.447 210.047,328.200 208.731 C 329.520 208.101,330.870 207.416,331.200 207.211 C 331.530 207.005,335.985 204.741,341.100 202.180 C 346.216 199.618,350.493 197.374,350.605 197.192 C 350.717 197.010,351.335 196.746,351.977 196.605 C 352.619 196.464,353.359 196.090,353.621 195.774 C 353.883 195.458,354.412 195.200,354.795 195.200 C 355.178 195.200,355.921 194.865,356.446 194.455 C 356.971 194.045,357.850 193.571,358.400 193.401 C 358.950 193.231,359.490 192.968,359.600 192.817 C 359.782 192.567,362.589 191.191,366.508 189.432 L 368.015 188.755 367.992 131.789 C 367.970 78.463,367.925 74.797,367.284 74.423 C 366.908 74.204,366.780 74.016,367.000 74.006 C 367.220 73.996,367.191 73.855,366.935 73.692 C 366.664 73.520,366.413 72.041,366.335 70.159 C 366.228 67.587,366.077 66.930,365.600 66.961 C 365.161 66.990,364.937 66.411,364.765 64.800 C 364.636 63.590,364.501 62.864,364.465 63.186 C 364.334 64.362,363.239 62.664,363.138 61.126 C 363.083 60.296,362.870 59.756,362.652 59.891 C 362.430 60.028,362.370 59.854,362.512 59.486 C 362.686 59.033,362.587 58.907,362.180 59.063 C 361.764 59.222,361.600 58.989,361.600 58.239 C 361.600 57.663,361.240 56.884,360.800 56.507 C 360.360 56.130,360.000 55.472,360.000 55.044 C 360.000 54.617,359.889 54.378,359.752 54.514 C 359.397 54.869,358.400 53.774,358.400 53.029 C 358.400 52.683,358.138 52.400,357.819 52.400 C 357.499 52.400,356.927 51.725,356.548 50.900 C 355.807 49.288,354.686 48.000,354.024 48.000 C 353.799 48.000,353.503 47.551,353.365 47.003 C 353.227 46.454,352.974 46.092,352.803 46.198 C 352.631 46.304,352.388 45.996,352.261 45.513 C 352.135 45.030,351.911 44.756,351.763 44.903 C 351.277 45.390,349.924 44.374,350.178 43.713 C 350.378 43.193,350.315 43.172,349.809 43.592 C 349.392 43.938,349.200 43.956,349.200 43.649 C 349.200 43.402,348.861 43.200,348.447 43.200 C 348.030 43.200,347.600 42.843,347.484 42.400 C 347.369 41.960,347.000 41.600,346.664 41.600 C 346.329 41.600,345.939 41.237,345.798 40.794 C 345.657 40.351,345.399 40.077,345.223 40.186 C 345.048 40.294,344.386 39.937,343.752 39.392 C 343.118 38.847,342.197 38.401,341.703 38.400 C 341.210 38.400,340.582 38.040,340.307 37.600 C 340.015 37.132,339.374 36.800,338.765 36.800 C 338.192 36.800,337.307 36.440,336.800 36.000 C 336.268 35.539,335.303 35.200,334.521 35.200 C 333.463 35.200,333.191 35.050,333.282 34.516 C 333.409 33.780,333.412 33.781,329.300 33.668 C 327.130 33.609,326.800 33.499,326.800 32.836 C 326.800 32.017,298.826 31.801,269.200 32.392 M274.000 84.061 C 280.463 84.799,288.038 87.493,293.120 90.860 C 294.066 91.487,294.935 92.000,295.051 92.000 C 295.554 92.000,301.213 96.926,303.518 99.369 C 307.547 103.641,310.664 108.585,313.625 115.400 C 314.500 117.414,315.717 121.617,316.057 123.800 C 316.262 125.120,316.623 127.460,316.859 129.000 C 317.739 134.752,315.891 146.970,313.381 152.000 C 313.107 152.550,312.309 154.170,311.609 155.600 C 305.173 168.744,293.718 177.944,278.975 181.808 C 272.564 183.489,259.504 183.497,255.513 181.824 C 254.695 181.481,253.612 181.200,253.107 181.200 C 252.602 181.200,251.516 180.840,250.696 180.400 C 249.875 179.960,248.976 179.600,248.698 179.600 C 248.000 179.600,241.285 176.143,240.545 175.402 C 240.214 175.071,239.762 174.800,239.540 174.800 C 238.432 174.800,228.400 165.496,228.400 164.468 C 228.400 164.233,228.175 163.896,227.899 163.720 C 227.243 163.300,224.159 158.731,223.827 157.686 C 223.685 157.238,223.306 156.654,222.985 156.387 C 222.663 156.120,222.400 155.588,222.400 155.205 C 222.400 154.822,222.040 154.050,221.600 153.491 C 221.160 152.931,220.800 152.050,220.800 151.531 C 220.800 151.012,220.440 149.916,220.000 149.096 C 219.560 148.275,219.200 147.168,219.200 146.637 C 219.200 146.106,218.842 144.530,218.405 143.136 C 217.369 139.831,217.219 126.887,218.189 124.564 C 218.513 123.788,218.898 122.219,219.044 121.077 C 219.190 119.935,219.645 118.332,220.055 117.516 C 220.465 116.700,220.800 115.597,220.800 115.065 C 220.800 114.533,221.070 113.874,221.400 113.600 C 221.730 113.326,222.000 112.956,222.000 112.777 C 222.000 112.280,222.715 110.771,223.790 109.000 C 224.324 108.120,224.995 106.952,225.281 106.405 C 225.566 105.859,226.070 105.121,226.400 104.766 C 226.730 104.412,227.360 103.606,227.800 102.976 C 229.238 100.917,232.157 97.809,234.364 95.987 C 235.555 95.004,236.818 93.930,237.171 93.600 C 238.520 92.340,241.413 90.600,245.200 88.772 C 250.020 86.445,251.085 86.000,251.844 85.998 C 252.260 85.996,253.098 85.735,253.706 85.418 C 254.315 85.101,256.205 84.634,257.906 84.380 C 266.152 83.153,266.071 83.154,274.000 84.061 M73.003 366.395 C 71.966 368.073,71.944 368.072,101.633 367.871 C 131.401 367.670,140.714 367.134,122.400 366.676 C 101.426 366.151,73.253 365.991,73.003 366.395 " stroke="none" fill="#70bbf4" fill-rule="evenodd"></path><path id="path1" d="M73.379 32.367 C 73.818 33.076,72.504 33.534,69.600 33.685 C 67.045 33.817,66.617 33.941,66.718 34.520 C 66.811 35.063,66.524 35.200,65.293 35.200 C 64.304 35.200,63.443 35.487,62.892 36.000 C 62.420 36.440,61.616 36.800,61.105 36.800 C 60.594 36.800,59.917 37.160,59.600 37.600 C 59.283 38.040,58.634 38.400,58.158 38.400 C 57.630 38.400,57.212 38.711,57.084 39.200 C 56.930 39.789,56.538 40.000,55.600 40.000 C 54.662 40.000,54.270 40.211,54.116 40.800 C 54.001 41.240,53.589 41.600,53.200 41.600 C 52.808 41.600,52.391 41.993,52.263 42.483 C 52.136 42.968,51.912 43.245,51.765 43.098 C 51.494 42.828,49.200 43.843,49.200 44.234 C 49.200 44.351,49.408 44.319,49.662 44.162 C 49.948 43.985,50.015 44.052,49.838 44.338 C 49.681 44.592,49.300 44.800,48.990 44.800 C 48.681 44.800,48.233 45.165,47.994 45.611 C 47.755 46.057,47.434 46.346,47.280 46.253 C 46.924 46.038,45.975 47.042,46.263 47.330 C 46.381 47.448,46.100 47.780,45.639 48.069 C 45.178 48.357,44.800 48.830,44.800 49.120 C 44.800 49.410,44.628 49.541,44.417 49.411 C 43.950 49.122,42.839 51.202,43.088 51.900 C 43.194 52.197,42.929 52.400,42.433 52.400 C 41.884 52.400,41.600 52.657,41.600 53.153 C 41.600 53.570,41.243 54.000,40.800 54.116 C 40.347 54.234,40.000 54.662,40.000 55.101 C 40.000 55.527,39.640 56.202,39.200 56.600 C 38.760 56.998,38.400 57.656,38.400 58.062 C 38.400 58.468,38.141 58.800,37.825 58.800 C 37.449 58.800,37.155 59.427,36.978 60.606 C 36.829 61.599,36.428 62.568,36.087 62.759 C 35.745 62.950,35.361 63.893,35.233 64.853 C 35.075 66.036,34.806 66.600,34.400 66.600 C 33.724 66.600,33.719 66.625,33.650 70.200 C 33.612 72.174,33.461 72.800,33.024 72.800 C 32.707 72.800,32.319 73.008,32.162 73.262 C 31.968 73.575,32.057 73.615,32.438 73.385 C 32.898 73.108,32.910 73.157,32.505 73.658 C 31.527 74.866,31.797 259.414,32.776 259.488 C 33.265 259.525,34.277 258.730,35.479 257.364 C 36.535 256.163,38.030 254.466,38.800 253.593 C 39.570 252.720,40.650 251.447,41.200 250.765 C 41.750 250.082,42.470 249.206,42.800 248.818 C 43.130 248.430,44.120 247.266,45.000 246.231 C 45.880 245.197,47.320 243.564,48.200 242.602 C 49.080 241.640,50.160 240.358,50.600 239.752 C 51.040 239.146,51.760 238.252,52.200 237.765 C 52.640 237.278,54.260 235.400,55.800 233.592 C 57.340 231.784,59.050 229.821,59.600 229.228 C 60.150 228.636,60.960 227.644,61.400 227.023 C 61.840 226.402,62.965 225.063,63.900 224.047 C 66.091 221.666,66.138 221.611,69.419 217.600 C 70.948 215.730,72.785 213.639,73.500 212.953 C 74.215 212.267,74.800 211.564,74.800 211.390 C 74.800 211.217,75.475 210.397,76.300 209.568 C 77.125 208.739,78.160 207.586,78.600 207.006 C 79.389 205.965,81.873 203.011,84.187 200.360 C 84.841 199.612,86.553 197.560,87.993 195.800 C 89.433 194.040,91.239 191.930,92.006 191.112 C 93.822 189.173,94.228 188.698,96.538 185.817 C 97.603 184.488,98.727 183.130,99.036 182.800 C 101.847 179.792,102.733 178.752,102.937 178.220 C 103.068 177.879,103.348 177.600,103.560 177.600 C 103.773 177.600,104.060 177.240,104.200 176.800 C 104.340 176.360,104.712 176.000,105.027 176.000 C 105.342 176.000,105.600 175.828,105.600 175.618 C 105.600 174.837,113.740 167.270,115.145 166.745 C 115.520 166.604,116.069 166.199,116.363 165.845 C 116.657 165.490,117.127 165.200,117.406 165.200 C 117.686 165.200,118.021 164.921,118.152 164.581 C 118.283 164.241,118.932 163.773,119.595 163.542 C 120.258 163.311,120.800 162.974,120.800 162.793 C 120.800 162.612,121.352 162.342,122.027 162.194 C 122.702 162.046,123.347 161.683,123.460 161.387 C 123.574 161.091,124.237 160.724,124.933 160.572 C 125.630 160.420,126.629 159.959,127.154 159.548 C 127.679 159.137,128.564 158.800,129.122 158.800 C 129.680 158.800,130.459 158.509,130.852 158.153 C 131.246 157.797,132.430 157.409,133.484 157.290 C 134.538 157.172,135.598 156.805,135.840 156.475 C 136.151 156.051,137.270 155.825,139.640 155.705 C 141.488 155.612,143.626 155.252,144.391 154.906 C 146.442 153.977,155.697 154.001,156.731 154.938 C 157.292 155.445,158.261 155.600,160.870 155.600 C 163.768 155.600,164.384 155.719,165.000 156.400 C 165.590 157.052,166.232 157.200,168.462 157.200 C 170.933 157.200,171.200 157.278,171.200 158.000 C 171.200 158.667,171.467 158.800,172.803 158.800 L 174.405 158.800 174.303 96.800 C 174.218 45.924,174.294 34.800,174.724 34.800 C 175.012 34.800,175.144 34.633,175.018 34.429 C 174.891 34.224,175.196 33.979,175.694 33.883 C 176.192 33.787,175.790 33.672,174.800 33.626 C 173.428 33.563,173.190 33.465,173.800 33.214 C 174.290 33.013,171.808 32.780,167.400 32.615 C 156.289 32.198,73.140 31.979,73.379 32.367 " stroke="none" fill="#a5d4fc" fill-rule="evenodd"></path><path id="path2" d="M366.400 73.167 C 366.400 73.405,366.591 73.600,366.824 73.600 C 367.057 73.600,367.136 73.780,367.000 74.000 C 366.864 74.220,366.957 74.400,367.206 74.400 C 367.804 74.400,367.542 73.114,366.900 72.900 C 366.625 72.808,366.400 72.928,366.400 73.167 M263.400 83.598 C 257.079 84.445,254.724 84.887,253.706 85.418 C 253.098 85.735,252.260 85.996,251.844 85.998 C 250.016 86.003,239.433 91.487,237.171 93.600 C 236.818 93.930,235.555 95.004,234.364 95.987 C 232.157 97.809,229.238 100.917,227.800 102.976 C 227.360 103.606,226.730 104.412,226.400 104.766 C 226.070 105.121,225.566 105.859,225.281 106.405 C 224.995 106.952,224.324 108.120,223.790 109.000 C 222.715 110.771,222.000 112.280,222.000 112.777 C 222.000 112.956,221.730 113.326,221.400 113.600 C 221.070 113.874,220.800 114.533,220.800 115.065 C 220.800 115.597,220.465 116.700,220.055 117.516 C 219.645 118.332,219.190 119.935,219.044 121.077 C 218.898 122.219,218.513 123.788,218.189 124.564 C 217.219 126.887,217.369 139.831,218.405 143.136 C 218.842 144.530,219.200 146.106,219.200 146.637 C 219.200 147.168,219.560 148.275,220.000 149.096 C 220.440 149.916,220.800 151.012,220.800 151.531 C 220.800 152.050,221.160 152.931,221.600 153.491 C 222.040 154.050,222.400 154.822,222.400 155.205 C 222.400 155.588,222.663 156.120,222.985 156.387 C 223.306 156.654,223.685 157.238,223.827 157.686 C 224.159 158.731,227.243 163.300,227.899 163.720 C 228.175 163.896,228.400 164.233,228.400 164.468 C 228.400 165.496,238.432 174.800,239.540 174.800 C 239.762 174.800,240.214 175.071,240.545 175.402 C 241.285 176.143,248.000 179.600,248.698 179.600 C 248.976 179.600,249.875 179.960,250.696 180.400 C 251.516 180.840,252.602 181.200,253.107 181.200 C 253.612 181.200,254.695 181.481,255.513 181.824 C 259.504 183.497,272.564 183.489,278.975 181.808 C 293.718 177.944,305.173 168.744,311.609 155.600 C 312.309 154.170,313.107 152.550,313.381 152.000 C 315.891 146.970,317.739 134.752,316.859 129.000 C 316.623 127.460,316.262 125.120,316.057 123.800 C 315.717 121.617,314.500 117.414,313.625 115.400 C 310.664 108.585,307.547 103.641,303.518 99.369 C 301.213 96.926,295.554 92.000,295.051 92.000 C 294.935 92.000,294.066 91.487,293.120 90.860 C 288.038 87.493,280.463 84.799,274.000 84.061 C 267.696 83.340,265.909 83.262,263.400 83.598 M282.478 87.235 C 282.558 87.474,283.504 87.835,284.581 88.036 C 285.658 88.237,286.837 88.671,287.201 89.001 C 287.565 89.330,288.166 89.600,288.535 89.600 C 288.905 89.600,289.516 89.960,289.893 90.400 C 290.270 90.840,290.824 91.200,291.126 91.200 C 291.427 91.200,292.131 91.560,292.691 92.000 C 293.250 92.440,293.945 92.800,294.234 92.800 C 294.523 92.800,294.904 93.029,295.080 93.310 C 295.373 93.776,296.714 94.794,298.361 95.800 C 299.204 96.315,303.957 101.162,305.000 102.571 C 305.440 103.165,306.070 103.967,306.400 104.353 C 307.531 105.677,308.800 107.568,308.800 107.930 C 308.800 108.129,309.149 108.736,309.575 109.278 C 310.002 109.820,310.475 110.758,310.627 111.364 C 310.779 111.969,311.132 112.553,311.412 112.660 C 311.692 112.767,312.042 113.499,312.190 114.286 C 312.337 115.073,312.695 116.096,312.984 116.558 C 313.274 117.021,313.636 118.114,313.789 118.986 C 313.943 119.859,314.308 121.035,314.600 121.600 C 316.176 124.647,316.018 141.716,314.377 145.674 C 313.950 146.705,313.600 148.023,313.600 148.603 C 313.600 149.183,313.346 149.911,313.036 150.221 C 312.727 150.531,312.353 151.494,312.207 152.361 C 312.060 153.228,311.694 154.032,311.392 154.148 C 311.091 154.263,310.724 154.997,310.578 155.779 C 310.431 156.561,310.164 157.200,309.985 157.200 C 309.805 157.200,309.075 158.221,308.361 159.469 C 306.789 162.215,306.866 162.122,302.506 166.611 C 298.793 170.434,296.146 172.800,295.581 172.800 C 295.393 172.800,295.096 173.051,294.920 173.357 C 294.744 173.663,293.925 174.194,293.100 174.537 C 292.275 174.879,291.600 175.348,291.600 175.580 C 291.600 175.811,291.255 176.000,290.833 176.000 C 289.641 176.000,288.800 176.431,288.800 177.043 C 288.800 177.395,288.359 177.600,287.600 177.600 C 286.933 177.600,286.044 177.956,285.600 178.400 C 285.013 178.987,284.267 179.200,282.800 179.200 C 281.289 179.200,280.800 179.347,280.800 179.800 C 280.800 180.133,280.444 180.400,280.000 180.400 C 279.205 180.400,279.200 180.133,279.200 133.600 L 279.200 86.800 280.767 86.800 C 281.628 86.800,282.399 86.996,282.478 87.235 M142.200 156.807 C 141.100 156.976,139.750 157.291,139.200 157.507 C 138.650 157.724,137.214 158.035,136.010 158.200 C 134.805 158.365,133.455 158.727,133.010 159.005 C 132.564 159.283,131.543 159.625,130.740 159.766 C 129.937 159.906,129.060 160.286,128.791 160.611 C 128.522 160.935,128.027 161.200,127.691 161.200 C 127.077 161.200,122.774 163.188,122.400 163.644 C 122.290 163.778,121.660 164.189,121.000 164.556 C 120.340 164.924,119.334 165.534,118.764 165.912 C 118.194 166.290,117.022 167.070,116.158 167.645 C 115.295 168.220,114.142 169.162,113.595 169.738 C 113.048 170.315,112.466 170.789,112.302 170.793 C 111.804 170.805,105.483 177.345,102.587 180.845 C 101.091 182.654,99.582 184.429,99.233 184.789 C 98.885 185.150,97.970 186.218,97.200 187.163 C 96.430 188.108,95.516 189.178,95.169 189.540 C 94.822 189.903,93.651 191.281,92.567 192.603 C 90.676 194.909,88.489 197.422,87.183 198.789 C 86.843 199.144,85.339 200.957,83.840 202.817 C 82.341 204.678,80.864 206.344,80.557 206.520 C 80.251 206.696,80.000 206.996,80.000 207.187 C 80.000 207.378,79.325 208.264,78.500 209.155 C 76.808 210.982,76.716 211.089,73.893 214.515 C 72.766 215.882,71.609 217.144,71.322 217.320 C 71.035 217.496,70.798 217.856,70.796 218.120 C 70.794 218.384,70.076 219.230,69.200 220.000 C 68.324 220.770,67.606 221.610,67.604 221.867 C 67.602 222.123,67.441 222.393,67.247 222.467 C 67.053 222.540,65.928 223.778,64.747 225.219 C 62.136 228.404,61.799 228.794,59.900 230.845 C 59.075 231.736,58.400 232.631,58.400 232.833 C 58.400 233.035,58.245 233.200,58.055 233.200 C 57.865 233.200,56.656 234.546,55.368 236.191 C 54.079 237.836,52.794 239.270,52.512 239.378 C 52.231 239.486,52.000 239.775,52.000 240.019 C 52.000 240.263,51.325 241.159,50.500 242.011 C 48.758 243.809,48.203 244.446,46.694 246.381 C 45.403 248.036,43.222 250.558,41.100 252.847 C 40.275 253.737,39.600 254.631,39.600 254.833 C 39.600 255.035,39.444 255.200,39.253 255.200 C 39.062 255.200,38.450 255.875,37.891 256.700 C 37.333 257.525,36.319 258.796,35.638 259.525 L 34.400 260.849 34.400 292.927 C 34.400 311.511,34.243 325.551,34.028 326.303 C 33.671 327.549,33.837 327.810,34.888 327.651 C 35.476 327.563,36.054 329.304,35.943 330.830 C 35.853 332.080,36.013 332.534,36.715 333.025 C 37.390 333.498,37.600 334.045,37.600 335.326 C 37.600 336.593,37.804 337.135,38.427 337.524 C 39.056 337.917,39.198 338.301,39.017 339.121 C 38.827 339.986,38.961 340.281,39.688 340.601 C 40.187 340.820,40.661 341.360,40.742 341.800 C 40.823 342.240,41.139 342.744,41.445 342.920 C 41.750 343.096,42.000 343.584,42.000 344.006 C 42.000 344.427,42.339 344.953,42.754 345.175 C 43.169 345.397,44.195 346.613,45.034 347.878 C 46.756 350.473,51.004 354.800,51.828 354.800 C 52.127 354.800,52.565 355.160,52.800 355.600 C 53.035 356.040,53.485 356.400,53.800 356.400 C 54.115 356.400,54.553 356.739,54.775 357.154 C 54.997 357.569,55.634 358.022,56.189 358.162 C 56.745 358.301,57.200 358.682,57.200 359.008 C 57.200 359.379,57.588 359.600,58.237 359.600 C 58.938 359.600,59.343 359.859,59.484 360.400 C 59.643 361.006,60.030 361.200,61.084 361.200 C 62.158 361.200,62.525 361.390,62.693 362.036 C 62.863 362.683,63.143 362.828,63.936 362.676 C 65.256 362.424,66.800 363.014,66.800 363.771 C 66.800 364.216,67.415 364.391,69.300 364.481 C 71.502 364.586,71.798 364.695,71.780 365.400 C 71.760 366.189,72.053 366.201,92.180 366.302 C 114.809 366.416,132.557 366.777,132.216 367.117 C 132.094 367.239,129.791 367.460,127.097 367.607 C 124.404 367.755,167.509 367.901,222.888 367.932 C 323.447 367.988,327.200 367.953,327.200 366.969 C 327.200 365.786,329.790 365.861,273.200 365.395 C 256.810 365.261,242.995 365.052,242.500 364.932 L 241.600 364.713 241.600 296.757 C 241.600 230.469,241.619 228.800,242.353 228.800 C 242.770 228.800,243.200 229.157,243.316 229.600 C 243.468 230.183,243.862 230.400,244.763 230.400 C 245.467 230.400,246.345 230.745,246.800 231.200 C 247.363 231.763,248.133 232.000,249.400 232.000 C 250.390 232.000,251.200 232.172,251.200 232.381 C 251.200 232.963,253.935 233.595,256.467 233.598 C 257.881 233.599,258.794 233.782,258.894 234.083 C 259.277 235.231,273.996 235.337,275.810 234.205 C 276.256 233.927,277.786 233.568,279.210 233.407 C 280.635 233.246,282.070 232.886,282.400 232.608 C 282.730 232.329,283.684 231.979,284.521 231.829 C 285.358 231.679,286.142 231.296,286.264 230.978 C 286.386 230.660,286.916 230.400,287.443 230.400 C 287.969 230.400,288.760 230.040,289.200 229.600 C 289.640 229.160,290.360 228.800,290.800 228.800 C 291.240 228.800,291.960 228.440,292.400 228.000 C 292.840 227.560,293.560 227.200,294.000 227.200 C 294.440 227.200,295.142 226.858,295.559 226.441 C 295.977 226.023,296.862 225.562,297.526 225.416 C 298.190 225.270,298.833 224.892,298.954 224.576 C 299.076 224.259,299.632 224.000,300.191 224.000 C 300.750 224.000,301.516 223.640,301.893 223.200 C 302.270 222.760,302.960 222.400,303.427 222.400 C 303.894 222.400,304.602 222.040,305.000 221.600 C 305.398 221.160,306.073 220.800,306.499 220.800 C 306.925 220.800,307.731 220.440,308.291 220.000 C 308.850 219.560,309.570 219.200,309.891 219.200 C 310.211 219.200,310.931 218.840,311.491 218.400 C 312.050 217.960,312.822 217.600,313.205 217.600 C 313.588 217.600,314.117 217.342,314.379 217.026 C 314.641 216.710,315.395 216.333,316.055 216.188 C 316.714 216.043,317.349 215.676,317.466 215.373 C 317.582 215.070,318.304 214.704,319.071 214.560 C 319.837 214.417,320.555 214.063,320.665 213.774 C 320.776 213.485,321.379 213.136,322.006 212.999 C 322.632 212.861,323.359 212.490,323.621 212.174 C 323.883 211.858,324.412 211.600,324.795 211.600 C 325.178 211.600,325.950 211.240,326.509 210.800 C 327.069 210.360,327.813 210.000,328.163 210.000 C 328.513 210.000,329.160 209.640,329.600 209.200 C 330.040 208.760,330.736 208.400,331.146 208.400 C 331.556 208.400,332.350 208.040,332.909 207.600 C 333.469 207.160,334.213 206.800,334.563 206.800 C 334.913 206.800,335.560 206.440,336.000 206.000 C 336.440 205.560,337.025 205.199,337.300 205.197 C 337.575 205.196,338.340 204.837,339.000 204.400 C 339.660 203.963,340.487 203.604,340.838 203.603 C 341.189 203.601,341.802 203.240,342.200 202.800 C 342.598 202.360,343.318 202.000,343.800 202.000 C 344.282 202.000,345.002 201.640,345.400 201.200 C 345.798 200.760,346.349 200.400,346.625 200.400 C 347.253 200.400,351.218 198.386,351.929 197.706 C 352.219 197.428,352.782 197.200,353.180 197.200 C 353.577 197.200,354.102 196.959,354.346 196.665 C 354.591 196.370,355.513 195.913,356.395 195.649 C 357.278 195.384,358.000 195.015,358.000 194.827 C 358.000 194.640,358.481 194.366,359.068 194.219 C 359.656 194.071,360.580 193.602,361.122 193.175 C 361.664 192.749,362.422 192.400,362.805 192.400 C 363.188 192.400,363.734 192.121,364.017 191.780 C 364.303 191.435,364.990 191.213,365.566 191.280 L 366.600 191.400 366.711 252.400 C 366.776 287.898,366.665 315.658,366.445 318.800 C 366.025 324.799,366.254 327.391,367.156 326.830 C 367.696 326.494,368.129 317.200,367.605 317.200 C 367.254 317.200,367.381 191.414,367.732 191.157 C 368.917 190.288,367.775 188.845,366.400 189.474 C 361.842 191.558,359.777 192.574,359.600 192.817 C 359.490 192.968,358.950 193.231,358.400 193.401 C 357.850 193.571,356.971 194.045,356.446 194.455 C 355.921 194.865,355.178 195.200,354.795 195.200 C 354.412 195.200,353.883 195.458,353.621 195.774 C 353.359 196.090,352.619 196.464,351.977 196.605 C 351.335 196.746,350.717 197.010,350.605 197.192 C 350.493 197.374,346.216 199.618,341.100 202.180 C 335.985 204.741,331.530 207.005,331.200 207.211 C 330.870 207.416,329.520 208.101,328.200 208.731 C 325.447 210.047,320.884 212.342,320.000 212.857 C 319.670 213.049,318.950 213.404,318.400 213.646 C 317.850 213.888,317.130 214.240,316.800 214.429 C 316.470 214.618,315.030 215.336,313.600 216.025 C 312.170 216.714,310.730 217.429,310.400 217.615 C 310.070 217.800,305.660 220.047,300.600 222.607 C 295.540 225.167,291.130 227.421,290.800 227.615 C 290.470 227.810,289.120 228.438,287.800 229.010 C 286.480 229.582,285.109 230.205,284.753 230.395 C 278.892 233.525,261.224 234.595,254.838 232.206 C 254.047 231.910,252.860 231.554,252.200 231.415 C 249.522 230.851,242.990 228.028,240.480 226.350 C 239.534 225.718,238.667 225.200,238.553 225.200 C 237.046 225.200,228.824 216.781,219.671 205.863 C 218.719 204.728,217.457 203.260,216.866 202.600 C 211.948 197.109,209.655 194.476,209.170 193.760 C 208.631 192.965,204.301 188.001,202.625 186.256 C 202.198 185.812,200.565 183.908,198.995 182.025 C 192.965 174.789,187.921 169.983,182.800 166.592 C 181.810 165.936,180.804 165.220,180.565 165.000 C 180.326 164.780,178.526 163.817,176.565 162.861 C 174.604 161.904,172.334 160.779,171.521 160.361 C 170.707 159.942,169.744 159.600,169.381 159.600 C 169.018 159.600,168.154 159.344,167.460 159.032 C 166.767 158.720,164.760 158.165,163.000 157.799 C 161.240 157.433,159.080 156.976,158.200 156.784 C 156.265 156.362,144.992 156.378,142.200 156.807 M364.620 330.073 C 364.506 330.583,364.554 331.630,364.726 332.400 L 365.040 333.800 365.739 332.741 C 366.138 332.138,366.373 331.191,366.286 330.541 C 366.094 329.104,364.913 328.772,364.620 330.073 M362.999 334.401 C 362.880 334.594,362.901 335.490,363.045 336.394 C 363.190 337.297,363.149 338.007,362.954 337.971 C 361.951 337.785,361.600 338.107,361.600 339.213 C 361.600 340.002,361.356 340.515,360.900 340.683 C 359.964 341.029,359.660 341.542,359.884 342.398 C 360.128 343.333,361.600 342.972,361.600 341.976 C 361.600 341.574,361.915 341.010,362.300 340.723 C 362.685 340.435,363.057 339.793,363.126 339.296 C 363.274 338.229,364.202 336.336,364.454 336.587 C 364.550 336.683,364.629 336.176,364.629 335.460 C 364.629 334.189,363.560 333.494,362.999 334.401 M358.252 344.840 C 358.089 345.657,357.848 345.917,357.412 345.749 C 356.963 345.577,356.800 345.782,356.800 346.520 C 356.800 347.328,356.957 347.484,357.600 347.316 C 358.040 347.201,358.400 346.879,358.400 346.600 C 358.400 346.321,358.760 345.999,359.200 345.884 C 360.225 345.616,360.254 344.160,359.240 343.895 C 358.656 343.742,358.428 343.960,358.252 344.840 M355.460 348.493 C 355.331 348.984,355.400 349.560,355.613 349.773 C 355.862 350.022,356.000 349.704,356.000 348.880 C 356.000 347.384,355.789 347.233,355.460 348.493 M352.100 352.199 C 350.945 353.384,350.000 354.602,350.000 354.907 C 350.000 355.289,349.645 355.409,348.856 355.294 C 347.955 355.161,347.666 355.303,347.494 355.963 C 347.360 356.476,346.951 356.800,346.437 356.800 C 345.965 356.800,345.600 357.058,345.600 357.392 C 345.600 357.718,345.167 358.093,344.638 358.226 C 344.109 358.359,343.591 358.792,343.487 359.188 C 343.346 359.728,343.030 359.857,342.225 359.703 C 341.374 359.540,341.106 359.673,340.929 360.349 C 340.686 361.280,340.723 361.261,339.000 361.343 C 338.076 361.387,337.770 361.610,337.671 362.313 C 337.557 363.116,337.381 363.195,336.205 362.975 C 334.587 362.671,333.200 363.055,333.200 363.807 C 333.200 364.200,332.533 364.395,330.900 364.480 C 328.907 364.584,328.600 364.707,328.600 365.400 C 328.600 366.671,331.679 366.759,332.909 365.523 C 333.623 364.806,334.180 364.629,335.411 364.730 C 336.281 364.801,336.857 364.723,336.690 364.557 C 336.333 364.199,339.994 362.349,340.473 362.645 C 340.653 362.756,340.800 362.567,340.800 362.224 C 340.800 361.843,341.152 361.600,341.705 361.600 C 342.260 361.600,342.763 361.252,343.005 360.700 C 343.306 360.015,343.669 359.832,344.529 359.932 C 345.384 360.033,345.708 359.872,345.866 359.269 C 345.980 358.832,346.417 358.384,346.837 358.274 C 347.281 358.158,347.600 357.725,347.600 357.237 C 347.600 356.777,347.735 356.438,347.900 356.484 C 348.440 356.634,352.348 354.639,352.148 354.315 C 352.041 354.142,352.143 353.978,352.376 353.950 C 352.609 353.923,353.025 353.878,353.300 353.850 C 353.575 353.822,353.822 353.575,353.850 353.300 C 353.878 353.025,353.923 352.609,353.950 352.376 C 353.978 352.143,354.182 352.065,354.403 352.202 C 354.829 352.465,355.632 350.814,355.329 350.300 C 354.945 349.647,354.110 350.138,352.100 352.199 " stroke="none" fill="#349aef" fill-rule="evenodd"></path><path id="path3" d="M160.400 32.400 C 160.950 32.576,164.370 32.751,168.000 32.788 C 172.094 32.830,174.296 32.987,173.800 33.200 C 173.178 33.467,173.400 33.562,174.800 33.626 C 175.790 33.672,176.192 33.787,175.694 33.883 C 175.196 33.979,174.891 34.224,175.018 34.429 C 175.144 34.633,175.012 34.800,174.724 34.800 C 174.294 34.800,174.218 45.924,174.303 96.800 L 174.405 158.800 172.803 158.800 C 171.467 158.800,171.200 158.667,171.200 158.000 C 171.200 157.278,170.933 157.200,168.462 157.200 C 166.232 157.200,165.590 157.052,165.000 156.400 C 164.384 155.719,163.768 155.600,160.870 155.600 C 158.261 155.600,157.292 155.445,156.731 154.938 C 155.697 154.001,146.442 153.977,144.391 154.906 C 143.626 155.252,141.488 155.612,139.640 155.705 C 137.270 155.825,136.151 156.051,135.840 156.475 C 135.598 156.805,134.538 157.172,133.484 157.290 C 132.430 157.409,131.246 157.797,130.852 158.153 C 130.459 158.509,129.680 158.800,129.122 158.800 C 128.564 158.800,127.679 159.137,127.154 159.548 C 126.629 159.959,125.630 160.420,124.933 160.572 C 124.237 160.724,123.574 161.091,123.460 161.387 C 123.347 161.683,122.702 162.046,122.027 162.194 C 121.352 162.342,120.800 162.612,120.800 162.793 C 120.800 162.974,120.258 163.311,119.595 163.542 C 118.932 163.773,118.283 164.241,118.152 164.581 C 118.021 164.921,117.686 165.200,117.406 165.200 C 117.127 165.200,116.657 165.490,116.363 165.845 C 116.069 166.199,115.520 166.604,115.145 166.745 C 113.740 167.270,105.600 174.837,105.600 175.618 C 105.600 175.828,105.342 176.000,105.027 176.000 C 104.712 176.000,104.340 176.360,104.200 176.800 C 104.060 177.240,103.773 177.600,103.560 177.600 C 103.348 177.600,103.068 177.879,102.937 178.220 C 102.733 178.752,101.847 179.792,99.036 182.800 C 98.727 183.130,97.603 184.488,96.538 185.817 C 94.228 188.698,93.822 189.173,92.006 191.112 C 91.239 191.930,89.433 194.040,87.993 195.800 C 86.553 197.560,84.841 199.612,84.187 200.360 C 81.873 203.011,79.389 205.965,78.600 207.006 C 78.160 207.586,77.125 208.739,76.300 209.568 C 75.475 210.397,74.800 211.217,74.800 211.390 C 74.800 211.564,74.215 212.267,73.500 212.953 C 72.785 213.639,70.948 215.730,69.419 217.600 C 66.138 221.611,66.091 221.666,63.900 224.047 C 62.965 225.063,61.840 226.402,61.400 227.023 C 60.960 227.644,60.150 228.636,59.600 229.228 C 59.050 229.821,57.340 231.784,55.800 233.592 C 54.260 235.400,52.640 237.278,52.200 237.765 C 51.760 238.252,51.040 239.146,50.600 239.752 C 50.160 240.358,49.080 241.640,48.200 242.602 C 47.320 243.564,45.880 245.197,45.000 246.231 C 44.120 247.266,43.130 248.430,42.800 248.818 C 42.470 249.206,41.750 250.082,41.200 250.765 C 40.650 251.447,39.570 252.720,38.800 253.593 C 38.030 254.466,36.517 256.183,35.438 257.409 C 34.330 258.667,33.247 259.550,32.951 259.436 C 32.662 259.326,32.319 259.407,32.189 259.617 C 31.296 261.063,34.061 259.693,35.600 257.927 C 36.590 256.791,38.210 254.933,39.200 253.798 C 40.190 252.663,42.427 250.039,44.172 247.967 C 45.916 245.895,47.537 244.020,47.774 243.800 C 48.010 243.580,49.011 242.410,49.999 241.200 C 50.986 239.990,52.960 237.650,54.385 236.000 C 55.809 234.350,57.431 232.470,57.987 231.822 C 58.544 231.173,59.644 229.913,60.430 229.022 C 61.217 228.130,62.139 226.988,62.479 226.484 C 62.819 225.980,63.889 224.720,64.856 223.684 C 65.823 222.648,67.511 220.722,68.607 219.404 C 70.853 216.703,75.543 211.228,76.181 210.562 C 76.411 210.321,77.230 209.353,78.000 208.411 C 79.275 206.850,80.210 205.756,84.360 200.968 C 85.107 200.106,87.608 197.150,89.917 194.400 C 92.226 191.650,94.316 189.220,94.561 189.000 C 94.806 188.780,96.259 187.070,97.791 185.200 C 105.556 175.720,111.776 169.482,116.600 166.334 C 117.700 165.617,118.691 164.903,118.803 164.748 C 118.915 164.593,120.310 163.804,121.904 162.994 C 123.497 162.185,124.901 161.360,125.024 161.161 C 125.147 160.963,125.532 160.800,125.880 160.800 C 126.228 160.800,127.252 160.454,128.156 160.031 C 129.060 159.608,130.790 158.907,132.000 158.473 C 134.079 157.727,135.349 157.365,139.600 156.310 C 143.167 155.424,159.826 155.731,162.586 156.734 C 163.899 157.210,165.401 157.600,165.926 157.600 C 166.450 157.600,167.446 157.859,168.140 158.177 C 168.833 158.494,170.165 158.951,171.100 159.192 C 172.035 159.433,172.800 159.804,172.800 160.015 C 172.800 160.227,173.011 160.400,173.268 160.400 C 173.708 160.400,177.625 162.259,179.400 163.310 C 181.638 164.635,185.849 167.400,186.200 167.776 C 186.420 168.011,187.590 169.012,188.800 170.002 C 190.010 170.991,191.294 172.160,191.653 172.600 C 192.013 173.040,193.453 174.580,194.853 176.023 C 197.773 179.030,199.303 180.743,202.337 184.400 C 203.523 185.830,204.653 187.060,204.847 187.133 C 205.041 187.207,205.200 187.421,205.200 187.610 C 205.200 187.799,205.965 188.747,206.900 189.718 C 208.874 191.768,210.203 193.272,212.989 196.610 C 215.725 199.890,215.969 200.171,217.800 202.152 C 220.660 205.246,223.792 208.887,224.165 209.551 C 224.365 209.908,224.770 210.344,225.065 210.520 C 225.359 210.696,225.600 211.101,225.600 211.420 C 225.600 211.739,225.876 212.000,226.213 212.000 C 226.549 212.000,226.938 212.294,227.076 212.653 C 227.214 213.013,228.648 214.668,230.263 216.331 C 231.878 217.994,233.200 219.418,233.200 219.496 C 233.200 219.836,235.447 221.576,235.900 221.587 C 236.175 221.594,236.400 221.870,236.400 222.200 C 236.400 222.530,236.668 222.800,236.997 222.800 C 237.325 222.800,237.818 223.160,238.093 223.600 C 238.368 224.040,238.909 224.400,239.296 224.400 C 239.683 224.400,240.360 224.760,240.800 225.200 C 241.240 225.640,241.870 226.000,242.200 226.000 C 242.530 226.000,243.160 226.360,243.600 226.800 C 244.040 227.240,244.760 227.600,245.200 227.600 C 245.640 227.600,246.360 227.960,246.800 228.400 C 247.323 228.923,248.133 229.200,249.139 229.200 C 250.103 229.200,251.022 229.498,251.600 230.000 C 252.264 230.576,253.097 230.800,254.572 230.800 C 255.700 230.800,256.977 231.048,257.411 231.351 C 258.288 231.964,261.909 232.161,270.500 232.063 L 276.000 232.000 276.000 207.800 C 276.000 183.867,275.991 183.600,275.200 183.600 C 274.760 183.600,274.400 183.859,274.400 184.175 C 274.400 185.472,262.208 185.474,260.776 184.178 C 260.405 183.842,259.312 183.596,258.169 183.590 C 255.886 183.579,253.190 183.022,252.841 182.489 C 252.709 182.286,251.821 182.018,250.869 181.894 C 249.917 181.770,248.823 181.383,248.437 181.034 C 248.052 180.685,247.346 180.400,246.869 180.400 C 246.391 180.400,245.640 180.040,245.200 179.600 C 244.760 179.160,244.040 178.800,243.600 178.800 C 243.160 178.800,242.440 178.440,242.000 178.000 C 241.560 177.560,241.075 177.200,240.922 177.200 C 240.565 177.200,237.527 175.144,237.000 174.546 C 236.780 174.296,236.396 174.026,236.148 173.946 C 234.525 173.422,226.000 164.413,226.000 163.221 C 226.000 162.990,225.852 162.800,225.671 162.800 C 225.273 162.800,223.363 159.942,223.003 158.810 C 222.862 158.365,222.585 158.000,222.389 158.000 C 222.193 158.000,221.816 157.278,221.551 156.395 C 221.287 155.513,220.830 154.591,220.535 154.346 C 220.241 154.102,219.999 153.519,219.997 153.051 C 219.996 152.583,219.637 151.660,219.200 151.000 C 218.763 150.340,218.404 149.295,218.403 148.678 C 218.401 148.061,218.064 146.801,217.653 145.878 C 215.835 141.796,215.899 124.000,217.744 120.600 C 218.102 119.940,218.397 118.860,218.400 118.200 C 218.403 117.540,218.763 116.460,219.200 115.800 C 219.637 115.140,219.996 114.217,219.997 113.749 C 219.999 113.281,220.241 112.698,220.535 112.454 C 220.830 112.209,221.287 111.287,221.551 110.405 C 221.816 109.522,222.205 108.800,222.416 108.800 C 222.627 108.800,222.800 108.595,222.800 108.345 C 222.800 105.999,235.802 91.600,237.920 91.600 C 238.137 91.600,238.418 91.330,238.545 91.000 C 238.671 90.670,239.023 90.400,239.325 90.400 C 239.628 90.400,240.399 89.950,241.038 89.400 C 241.677 88.851,242.515 88.401,242.900 88.400 C 243.285 88.400,243.600 88.228,243.600 88.019 C 243.600 87.809,244.228 87.464,244.995 87.252 C 245.762 87.041,246.653 86.604,246.975 86.282 C 247.297 85.960,248.245 85.569,249.080 85.414 C 249.916 85.259,250.884 84.878,251.230 84.567 C 251.577 84.257,253.017 83.888,254.430 83.748 C 255.844 83.608,257.278 83.252,257.619 82.958 C 258.072 82.566,260.609 82.350,267.119 82.149 L 276.000 81.874 276.000 58.537 L 276.000 35.200 274.900 35.159 C 273.715 35.115,274.374 34.873,278.000 34.021 L 279.400 33.692 278.100 33.646 C 277.385 33.621,276.800 33.420,276.800 33.200 C 276.800 32.947,273.306 32.767,267.300 32.709 L 257.800 32.619 269.200 32.400 C 275.470 32.280,253.330 32.158,220.000 32.130 C 186.670 32.103,159.850 32.224,160.400 32.400 " stroke="none" fill="#87c4fb" fill-rule="evenodd"></path><path id="path4" d="M347.600 42.800 C 347.600 43.020,348.005 43.197,348.500 43.194 C 349.228 43.189,349.285 43.114,348.800 42.800 C 348.024 42.299,347.600 42.299,347.600 42.800 M279.200 133.600 C 279.200 180.133,279.205 180.400,280.000 180.400 C 280.444 180.400,280.800 180.133,280.800 179.800 C 280.800 179.347,281.289 179.200,282.800 179.200 C 284.267 179.200,285.013 178.987,285.600 178.400 C 286.044 177.956,286.933 177.600,287.600 177.600 C 288.359 177.600,288.800 177.395,288.800 177.043 C 288.800 176.431,289.641 176.000,290.833 176.000 C 291.255 176.000,291.600 175.811,291.600 175.580 C 291.600 175.348,292.275 174.879,293.100 174.537 C 293.925 174.194,294.744 173.663,294.920 173.357 C 295.096 173.051,295.393 172.800,295.581 172.800 C 296.146 172.800,298.793 170.434,302.506 166.611 C 306.866 162.122,306.789 162.215,308.361 159.469 C 309.075 158.221,309.805 157.200,309.985 157.200 C 310.164 157.200,310.431 156.561,310.578 155.779 C 310.724 154.997,311.091 154.263,311.392 154.148 C 311.694 154.032,312.060 153.228,312.207 152.361 C 312.353 151.494,312.727 150.531,313.036 150.221 C 313.346 149.911,313.600 149.183,313.600 148.603 C 313.600 148.023,313.950 146.705,314.377 145.674 C 316.018 141.716,316.176 124.647,314.600 121.600 C 314.308 121.035,313.943 119.859,313.789 118.986 C 313.636 118.114,313.274 117.021,312.984 116.558 C 312.695 116.096,312.337 115.073,312.190 114.286 C 312.042 113.499,311.692 112.767,311.412 112.660 C 311.132 112.553,310.779 111.969,310.627 111.364 C 310.475 110.758,310.002 109.820,309.575 109.278 C 309.149 108.736,308.800 108.129,308.800 107.930 C 308.800 107.568,307.531 105.677,306.400 104.353 C 306.070 103.967,305.440 103.165,305.000 102.571 C 303.957 101.162,299.204 96.315,298.361 95.800 C 296.714 94.794,295.373 93.776,295.080 93.310 C 294.904 93.029,294.523 92.800,294.234 92.800 C 293.945 92.800,293.250 92.440,292.691 92.000 C 292.131 91.560,291.427 91.200,291.126 91.200 C 290.824 91.200,290.270 90.840,289.893 90.400 C 289.516 89.960,288.905 89.600,288.535 89.600 C 288.166 89.600,287.565 89.330,287.201 89.001 C 286.837 88.671,285.658 88.237,284.581 88.036 C 283.504 87.835,282.558 87.474,282.478 87.235 C 282.399 86.996,281.628 86.800,280.767 86.800 L 279.200 86.800 279.200 133.600 M364.017 191.780 C 363.734 192.121,363.188 192.400,362.805 192.400 C 362.422 192.400,361.664 192.749,361.122 193.175 C 360.580 193.602,359.656 194.071,359.068 194.219 C 358.481 194.366,358.000 194.640,358.000 194.827 C 358.000 195.015,357.278 195.384,356.395 195.649 C 355.513 195.913,354.591 196.370,354.346 196.665 C 354.102 196.959,353.577 197.200,353.180 197.200 C 352.782 197.200,352.219 197.428,351.929 197.706 C 351.218 198.386,347.253 200.400,346.625 200.400 C 346.349 200.400,345.798 200.760,345.400 201.200 C 345.002 201.640,344.282 202.000,343.800 202.000 C 343.318 202.000,342.598 202.360,342.200 202.800 C 341.802 203.240,341.189 203.601,340.838 203.603 C 340.487 203.604,339.660 203.963,339.000 204.400 C 338.340 204.837,337.575 205.196,337.300 205.197 C 337.025 205.199,336.440 205.560,336.000 206.000 C 335.560 206.440,334.913 206.800,334.563 206.800 C 334.213 206.800,333.469 207.160,332.909 207.600 C 332.350 208.040,331.556 208.400,331.146 208.400 C 330.736 208.400,330.040 208.760,329.600 209.200 C 329.160 209.640,328.513 210.000,328.163 210.000 C 327.813 210.000,327.069 210.360,326.509 210.800 C 325.950 211.240,325.178 211.600,324.795 211.600 C 324.412 211.600,323.883 211.858,323.621 212.174 C 323.359 212.490,322.632 212.861,322.006 212.999 C 321.379 213.136,320.776 213.485,320.665 213.774 C 320.555 214.063,319.837 214.417,319.071 214.560 C 318.304 214.704,317.582 215.070,317.466 215.373 C 317.349 215.676,316.714 216.043,316.055 216.188 C 315.395 216.333,314.641 216.710,314.379 217.026 C 314.117 217.342,313.588 217.600,313.205 217.600 C 312.822 217.600,312.050 217.960,311.491 218.400 C 310.931 218.840,310.211 219.200,309.891 219.200 C 309.570 219.200,308.850 219.560,308.291 220.000 C 307.731 220.440,306.925 220.800,306.499 220.800 C 306.073 220.800,305.398 221.160,305.000 221.600 C 304.602 222.040,303.894 222.400,303.427 222.400 C 302.960 222.400,302.270 222.760,301.893 223.200 C 301.516 223.640,300.750 224.000,300.191 224.000 C 299.632 224.000,299.076 224.259,298.954 224.576 C 298.833 224.892,298.190 225.270,297.526 225.416 C 296.862 225.562,295.977 226.023,295.559 226.441 C 295.142 226.858,294.440 227.200,294.000 227.200 C 293.560 227.200,292.840 227.560,292.400 228.000 C 291.960 228.440,291.240 228.800,290.800 228.800 C 290.360 228.800,289.640 229.160,289.200 229.600 C 288.760 230.040,287.969 230.400,287.443 230.400 C 286.916 230.400,286.386 230.660,286.264 230.978 C 286.142 231.296,285.358 231.679,284.521 231.829 C 283.684 231.979,282.730 232.329,282.400 232.608 C 282.070 232.886,280.635 233.246,279.210 233.407 C 277.786 233.568,276.256 233.927,275.810 234.205 C 273.996 235.337,259.277 235.231,258.894 234.083 C 258.794 233.782,257.881 233.599,256.467 233.598 C 253.935 233.595,251.200 232.963,251.200 232.381 C 251.200 232.172,250.390 232.000,249.400 232.000 C 248.133 232.000,247.363 231.763,246.800 231.200 C 246.345 230.745,245.467 230.400,244.763 230.400 C 243.862 230.400,243.468 230.183,243.316 229.600 C 243.200 229.157,242.770 228.800,242.353 228.800 C 241.619 228.800,241.600 230.469,241.600 296.757 L 241.600 364.713 242.500 364.932 C 242.995 365.052,256.810 365.261,273.200 365.396 C 313.704 365.730,325.544 365.911,327.236 366.221 C 328.559 366.463,328.670 366.409,328.636 365.542 C 328.603 364.671,328.773 364.591,330.900 364.480 C 332.533 364.395,333.200 364.200,333.200 363.807 C 333.200 363.055,334.587 362.671,336.205 362.975 C 337.381 363.195,337.557 363.116,337.671 362.313 C 337.770 361.610,338.076 361.387,339.000 361.343 C 340.720 361.261,340.686 361.277,340.918 360.391 C 341.080 359.773,341.417 359.604,342.345 359.675 C 343.264 359.745,343.459 359.888,343.145 360.266 C 342.546 360.988,343.105 361.719,343.779 361.096 C 344.135 360.766,344.195 360.375,343.957 359.926 C 343.393 358.861,343.528 358.505,344.600 358.236 C 345.150 358.098,345.600 357.718,345.600 357.392 C 345.600 357.058,345.965 356.800,346.437 356.800 C 346.951 356.800,347.360 356.476,347.494 355.963 C 347.666 355.303,347.955 355.161,348.856 355.294 C 349.647 355.410,350.000 355.290,350.000 354.905 C 350.000 354.016,354.341 349.892,355.008 350.148 C 355.460 350.321,355.503 350.604,355.197 351.409 C 354.935 352.096,354.937 352.363,355.201 352.199 C 355.421 352.064,355.600 351.693,355.600 351.376 C 355.600 351.059,355.881 350.800,356.224 350.800 C 356.567 350.800,356.736 350.620,356.600 350.400 C 356.464 350.180,356.554 350.000,356.800 350.000 C 357.046 350.000,357.151 349.844,357.033 349.653 C 356.915 349.463,357.175 348.985,357.609 348.591 C 358.627 347.671,358.622 347.049,357.600 347.316 C 356.957 347.484,356.800 347.328,356.800 346.520 C 356.800 345.782,356.963 345.577,357.412 345.749 C 357.849 345.917,358.089 345.655,358.254 344.832 C 358.459 343.803,358.598 343.713,359.548 343.985 C 360.256 344.188,360.777 344.115,361.102 343.766 C 361.621 343.211,361.093 342.572,360.445 342.972 C 360.015 343.238,359.596 341.840,359.949 341.315 C 360.087 341.110,360.515 340.825,360.900 340.683 C 361.348 340.518,361.600 340.004,361.600 339.255 C 361.600 338.127,362.543 337.260,362.988 337.980 C 363.445 338.721,364.785 337.921,364.705 336.955 C 364.603 335.730,364.481 335.753,363.931 337.100 L 363.482 338.200 363.108 336.453 C 362.680 334.454,363.152 333.530,364.169 334.374 C 364.696 334.812,364.753 334.580,364.621 332.504 C 364.456 329.927,364.788 328.956,365.713 329.311 C 366.536 329.627,366.560 327.558,366.582 254.000 L 366.600 191.400 365.566 191.280 C 364.990 191.213,364.303 191.435,364.017 191.780 M367.400 254.200 C 367.400 288.850,367.535 317.200,367.700 317.200 C 367.865 317.200,368.000 288.850,368.000 254.200 C 368.000 219.550,367.865 191.200,367.700 191.200 C 367.535 191.200,367.400 219.550,367.400 254.200 M367.632 325.867 C 367.614 326.343,367.375 326.824,367.100 326.935 C 366.708 327.093,366.711 327.144,367.113 327.168 C 367.720 327.206,368.161 326.240,367.869 325.513 C 367.756 325.231,367.649 325.390,367.632 325.867 M365.693 332.800 C 365.276 333.467,365.293 333.600,365.797 333.600 C 366.133 333.600,366.400 333.246,366.400 332.800 C 366.400 332.360,366.353 332.000,366.296 332.000 C 366.239 332.000,365.968 332.360,365.693 332.800 M362.267 340.667 C 361.781 341.153,361.990 341.579,362.600 341.345 C 362.930 341.218,363.200 340.954,363.200 340.757 C 363.200 340.338,362.649 340.284,362.267 340.667 M356.000 348.880 C 356.000 349.704,355.862 350.022,355.613 349.773 C 355.400 349.560,355.331 348.984,355.460 348.493 C 355.789 347.233,356.000 347.384,356.000 348.880 M349.800 355.786 C 348.920 356.282,348.086 356.625,347.946 356.548 C 347.806 356.472,347.606 356.857,347.501 357.405 C 347.272 358.605,347.630 358.672,348.591 357.609 C 348.985 357.175,349.463 356.915,349.653 357.033 C 349.844 357.151,350.000 357.046,350.000 356.800 C 350.000 356.554,350.180 356.464,350.400 356.600 C 350.620 356.736,350.800 356.567,350.800 356.224 C 350.800 355.881,351.059 355.600,351.376 355.600 C 351.693 355.600,352.064 355.420,352.200 355.200 C 352.599 354.554,351.521 354.817,349.800 355.786 M340.800 362.200 C 340.800 362.556,340.665 362.769,340.500 362.674 C 340.335 362.578,339.840 362.645,339.400 362.822 C 338.689 363.108,338.717 363.147,339.651 363.172 C 340.815 363.203,341.920 362.245,341.219 361.812 C 340.989 361.669,340.800 361.844,340.800 362.200 M337.302 363.775 C 336.809 364.048,336.524 364.390,336.669 364.536 C 337.188 365.054,337.910 364.787,338.116 364.000 C 338.231 363.560,338.297 363.218,338.263 363.239 C 338.228 363.261,337.796 363.502,337.302 363.775 M332.624 365.813 C 331.865 366.387,331.867 366.400,332.724 366.400 C 333.236 366.400,333.600 366.151,333.600 365.800 C 333.600 365.076,333.597 365.076,332.624 365.813 " stroke="none" fill="#248ce7" fill-rule="evenodd"></path></g></svg>